<mxfile host="65bd71144e" scale="8" border="0">
    <diagram id="1pCyvIczMIgOc1-VyjsE" name="Page-1">
        <mxGraphModel dx="1078" dy="639" grid="1" gridSize="10" guides="1" tooltips="1" connect="1" arrows="1" fold="1" page="1" pageScale="1" pageWidth="850" pageHeight="1100" math="0" shadow="0">
            <root>
                <mxCell id="0"/>
                <mxCell id="1" parent="0"/>
                <mxCell id="4" value="Performance Estimators (§2.5)" style="swimlane;collapsible=0;" vertex="1" parent="1">
                    <mxGeometry x="280" y="380" width="200" height="90" as="geometry"/>
                </mxCell>
                <mxCell id="5" value="&lt;ul&gt;&lt;li&gt;&lt;span style=&quot;background-color: initial;&quot;&gt;Pairwise precision/recall&lt;/span&gt;&lt;/li&gt;&lt;li&gt;Cluster precision/recall&lt;/li&gt;&lt;li&gt;B-cubed precision/recall&lt;/li&gt;&lt;/ul&gt;" style="whiteSpace=wrap;html=1;align=left;" vertex="1" parent="4">
                    <mxGeometry y="23" width="200" height="67" as="geometry"/>
                </mxCell>
                <mxCell id="7" value="Error Analysis (§2.4)" style="swimlane;collapsible=0;" vertex="1" parent="1">
                    <mxGeometry x="40" y="380" width="200" height="90" as="geometry"/>
                </mxCell>
                <mxCell id="8" value="&lt;ul&gt;&lt;li&gt;Fairness&lt;/li&gt;&lt;li&gt;Interpretable modeling&lt;/li&gt;&lt;li&gt;Error coding/auditing&lt;/li&gt;&lt;/ul&gt;" style="whiteSpace=wrap;html=1;align=left;" vertex="1" parent="7">
                    <mxGeometry y="23" width="200" height="67" as="geometry"/>
                </mxCell>
                <mxCell id="9" value="Data Labeling (§2.3)" style="swimlane;collapsible=0;" vertex="1" parent="1">
                    <mxGeometry x="160" y="150" width="200" height="90" as="geometry"/>
                </mxCell>
                <mxCell id="10" value="&lt;ul&gt;&lt;li&gt;Labeling methodology&lt;/li&gt;&lt;li&gt;Probability Sampling&lt;/li&gt;&lt;li&gt;Quality Assurance&lt;/li&gt;&lt;/ul&gt;" style="whiteSpace=wrap;html=1;align=left;" vertex="1" parent="9">
                    <mxGeometry y="23" width="200" height="67" as="geometry"/>
                </mxCell>
                <mxCell id="24" style="edgeStyle=none;html=1;exitX=0.25;exitY=1;exitDx=0;exitDy=0;" edge="1" parent="1" source="11" target="7">
                    <mxGeometry relative="1" as="geometry"/>
                </mxCell>
                <mxCell id="25" style="edgeStyle=none;html=1;exitX=0.75;exitY=1;exitDx=0;exitDy=0;entryX=0.25;entryY=0;entryDx=0;entryDy=0;" edge="1" parent="1" source="11" target="4">
                    <mxGeometry relative="1" as="geometry"/>
                </mxCell>
                <mxCell id="11" value="Cluster-Wise Error Metrics&amp;nbsp;(§2.4)" style="rounded=1;whiteSpace=wrap;html=1;fontStyle=1" vertex="1" parent="1">
                    <mxGeometry x="200" y="280" width="120" height="60" as="geometry"/>
                </mxCell>
                <mxCell id="22" style="edgeStyle=none;html=1;exitX=0.25;exitY=1;exitDx=0;exitDy=0;entryX=0.75;entryY=0;entryDx=0;entryDy=0;" edge="1" parent="1" source="12" target="9">
                    <mxGeometry relative="1" as="geometry"/>
                </mxCell>
                <mxCell id="23" style="edgeStyle=none;html=1;exitX=0.75;exitY=1;exitDx=0;exitDy=0;entryX=0.25;entryY=0;entryDx=0;entryDy=0;" edge="1" parent="1" source="12" target="13">
                    <mxGeometry relative="1" as="geometry"/>
                </mxCell>
                <mxCell id="12" value="ER System Predictions" style="rounded=1;whiteSpace=wrap;html=1;fontStyle=3" vertex="1" parent="1">
                    <mxGeometry x="340" y="40" width="120" height="60" as="geometry"/>
                </mxCell>
                <mxCell id="13" value="Quality Assurance (§2.2)" style="swimlane;collapsible=0;" vertex="1" parent="1">
                    <mxGeometry x="440" y="150" width="200" height="90" as="geometry"/>
                </mxCell>
                <mxCell id="14" value="&lt;ul&gt;&lt;li&gt;Summary Statistics&lt;/li&gt;&lt;li&gt;Monitoring&lt;/li&gt;&lt;li&gt;Visualizations&lt;/li&gt;&lt;/ul&gt;" style="whiteSpace=wrap;html=1;align=left;" vertex="1" parent="13">
                    <mxGeometry y="23" width="200" height="67" as="geometry"/>
                </mxCell>
                <mxCell id="17" value="" style="edgeStyle=none;html=1;" edge="1" parent="1" source="10" target="11">
                    <mxGeometry relative="1" as="geometry"/>
                </mxCell>
                <mxCell id="31" value="" style="edgeStyle=none;html=1;" edge="1" parent="1" source="30" target="11">
                    <mxGeometry relative="1" as="geometry"/>
                </mxCell>
                <mxCell id="30" value="Sensitivity analyses" style="rounded=0;whiteSpace=wrap;html=1;" vertex="1" parent="1">
                    <mxGeometry x="360" y="295" width="125" height="30" as="geometry"/>
                </mxCell>
            </root>
        </mxGraphModel>
    </diagram>
</mxfile>